<svg 
 xmlns="http://www.w3.org/2000/svg"
 xmlns:xlink="http://www.w3.org/1999/xlink"
 width="163px" height="36px">
<path fill-rule="evenodd"  fill="rgb(255, 198, 0)"
 d="M162.912,27.115 L162.912,34.507 L141.792,34.507 L141.792,0.907 L162.672,0.907 L162.672,8.299 L149.472,8.299 L149.472,13.867 L161.472,13.867 L161.472,21.163 L149.472,21.163 L149.472,27.115 L162.912,27.115 ZM123.313,27.691 C125.008,27.691 126.553,27.323 127.945,26.587 C129.337,25.851 130.384,24.843 131.089,23.563 L137.713,27.403 C136.273,29.803 134.272,31.699 131.713,33.091 C129.152,34.483 126.352,35.179 123.313,35.179 C118.288,35.179 114.121,33.507 110.809,30.163 C107.497,26.819 105.841,22.667 105.841,17.707 C105.841,12.747 107.497,8.595 110.809,5.251 C114.121,1.907 118.288,0.235 123.313,0.235 C126.320,0.235 129.104,0.931 131.665,2.323 C134.224,3.715 136.240,5.611 137.713,8.011 L131.089,11.851 C130.352,10.539 129.296,9.523 127.921,8.803 C126.544,8.083 125.008,7.723 123.313,7.723 C120.337,7.723 117.961,8.635 116.185,10.459 C114.409,12.283 113.521,14.699 113.521,17.707 C113.521,20.715 114.409,23.131 116.185,24.955 C117.961,26.779 120.337,27.691 123.313,27.691 ZM93.361,0.907 L101.041,0.907 L101.041,34.507 L93.361,34.507 L93.361,0.907 ZM69.265,34.507 L58.321,0.907 L66.721,0.907 L74.161,25.627 L81.601,0.907 L90.001,0.907 L79.057,34.507 L69.265,34.507 ZM35.281,0.907 L56.161,0.907 L56.161,8.299 L42.961,8.299 L42.961,13.867 L54.961,13.867 L54.961,21.163 L42.961,21.163 L42.961,27.115 L56.401,27.115 L56.401,34.507 L35.281,34.507 L35.281,0.907 ZM14.162,34.507 L0.722,34.507 L0.722,0.907 L14.162,0.907 C18.801,0.907 22.682,2.515 25.802,5.731 C28.922,8.947 30.482,12.939 30.482,17.707 C30.482,22.475 28.922,26.467 25.802,29.683 C22.682,32.899 18.801,34.507 14.162,34.507 ZM20.618,10.867 C18.969,9.155 16.817,8.299 14.162,8.299 L8.402,8.299 L8.402,27.115 L14.162,27.115 C16.817,27.115 18.969,26.259 20.618,24.547 C22.265,22.835 23.090,20.555 23.090,17.707 C23.090,14.859 22.265,12.579 20.618,10.867 Z"/>
</svg>